<svg xmlns="http://www.w3.org/2000/svg" xmlns:xlink="http://www.w3.org/1999/xlink" style="vertical-align:-11.108ex;margin-bottom:-.146ex;max-width:80000px" width="100ex" height="23.759ex" viewBox="0 -5383.9 43055.4 10229.7"><defs><path id="r" stroke-width="1" d="M56 237v13l14 20h299v150l1 150q10 13 19 13 13 0 20-15V270h298q15-8 15-20t-15-20H409V-68q-8-14-18-14h-4q-12 0-18 14v298H70q-14 7-14 20z"/><path id="a" stroke-width="1" d="M94 250q0 69 10 131t23 107 37 88 38 67 42 52 33 34 25 21h17q14 0 14-9 0-3-17-21t-41-53-49-86-42-138-17-193 17-192 41-139 49-86 42-53 17-21q0-9-15-9h-16l-28 24q-94 85-137 212T94 250z"/><path id="c" stroke-width="1" d="M60 749l4 1h22l28-24q94-85 137-212t43-264q0-68-10-131T261 12t-37-88-38-67-41-51-32-33-23-19l-4-4H63q-3 0-5 3t-3 9q1 1 11 13Q221-64 221 250T66 725q-10 12-11 13 0 8 5 11z"/><path id="g" stroke-width="1" d="M114-798q18-26 51-26h2q28 0 56 60t52 164 45 209 42 227q3 21 5 31 15 81 23 135-76 38-114 97-46 68-46 150 0 114 75 187t179 83h10l9 44q84 376 129 524t95 211q47 62 101 62 56 0 84-35t32-80q0-25-12-40t-23-19-22-3q-21 0-38 15t-17 41q0 48 53 57l-3 4q-3 3-8 7t-8 6q-15 10-33 10-67 0-145-394-26-118-78-433 160-80 160-247 0-102-69-181T516-21h-10l-9-44q-90-399-140-558T237-837q-34-25-72-25-40 0-73 31t-37 85q0 35 19 48t38 13q21 0 38-15t17-41q0-48-53-57zM480 478q-20 0-45-8t-55-26-53-43-40-66-16-86q0-125 104-193l22-13 34 180 54 255h-5zm39-458q26 0 59 13t69 39 59 72 24 105q0 134-127 206 0-1-6-34t-15-78-13-67Q516 22 515 20h4z"/><path id="h" stroke-width="1" d="M117 59q0-33 25-33 37 0 63 105 6 20 10 21 2 1 10 1h16q3 0 5-2t2-7q-1-6-3-16t-11-38-20-47-31-37-46-17q-36 0-67 22T38 85q0 12 1 17l65 258q63 255 63 263 0 3-1 5t-4 4-5 2-8 1-8 1-9 1-10 0h-13q-3 0-8 1t-6 3-1 6q0 2 2 14 5 19 11 21t72 6q15 1 34 2t30 3 11 1q12 0 12-8 0-11-73-300T118 83v-8q0-6-1-10v-6z"/><path id="i" stroke-width="1" d="M258 624h-23q-21 0-26 2t-10 13q4 39 17 45 4 2 23 2 51-2 164-2 72 0 109 1t41 1q23 0 23-18-4-36-16-42-5-2-54-2h-49l-58-235q0-1 148-1h148l58 235q0 1-44 1h-23q-21 0-26 2t-10 13q3 39 18 45 4 2 13 2 4 0 45-1t121-1h90q35 0 49 1t18 1q23 0 23-18-4-36-16-42-5-2-54-2h-49l-69-280Q768 64 768 63t44-1h27q32 0 32-18-4-38-17-42l-4-2-42 1q-26 1-133 1-75 0-115-1t-44-1q-17 0-22 15 4 39 17 45 4 2 53 2h49l1 4 65 258q0 2-148 2H383l-1-4-65-258q0-2 44-2h27q32 0 32-18-4-38-17-42l-4-2-42 1q-26 1-133 1-75 0-115-1T65 0Q48 0 43 15q4 39 17 45 4 2 53 2h49l140 561q0 1-44 1z"/><path id="j" stroke-width="1" d="M78 250q0 24 17 42t43 18q24 0 42-16t19-43q0-25-17-43t-43-18-43 17-18 43z"/><path id="k" stroke-width="1" d="M376 495v40q0 24 1 33 0 45-10 56t-51 13h-18v23q0 23 2 23l10 1q10 1 29 2t37 2 37 2 30 3 11 1h3V390q0-306 1-309 3-20 14-26t45-9h18V0q-2 0-76-5t-79-6h-7v55l-8-7q-58-48-130-48-77 0-139 61T34 215q0 100 63 163t147 64q75 0 132-49v102zm-3-153q-45 63-113 63-49 0-87-36-27-28-34-64t-8-94q0-56 7-91t35-61q30-33 78-33 71 0 122 77v239z"/><path id="l" stroke-width="1" d="M157-8q-19 0-39 4T77 11 41 42 27 91v15l129 516h-9q-4 0-10 1t-12 1-11 0-10 0-5 1q-12 3-12 17 0 5 4 19t6 18q4 5 15 6t76 5q73 4 87 4 17 0 21-15L151 91q-1-6-1-20 0-29 17-29 19 0 38 33 11 21 20 59 5 21 9 24t21 4h16q20 0 20-14-1-3-2-8t-6-22-12-31-17-33-25-31-32-22-40-9z"/><path id="m" stroke-width="1" d="M56 347q0 13 14 20h637q15-8 15-20 0-11-14-19l-318-1H72q-16 5-16 20zm0-194q0 15 16 20h636q14-10 14-20 0-13-15-20H70q-14 7-14 20z"/><path id="n" stroke-width="1" d="M114-798q18-26 51-26h2q28 0 56 60t52 164 45 209 42 227q3 21 5 31 72 425 156 788t122 472l10 30q4 12 17 44t27 56 34 49 44 40 51 14q56 0 84-35t32-80q0-25-12-40t-23-19-22-3q-21 0-38 15t-17 41q0 48 53 57l-3 4q-3 3-8 7t-8 6q-15 10-33 10-14 0-26-12t-32-56-39-116-47-203-56-308Q574 293 510-5T410-437t-55-192q-77-233-190-233-40 0-73 31t-37 85q0 35 19 48t38 13q21 0 38-15t17-41q0-48-53-57zm528 0q18-26 51-26h2q28 0 56 60t52 164 45 209 42 227q3 21 5 31 72 425 156 788t122 472l10 30q4 12 17 44t27 56 34 49 44 40 51 14q56 0 84-35t32-80q0-25-12-40t-23-19-22-3q-21 0-38 15t-17 41q0 48 53 57l-3 4q-3 3-8 7t-8 6q-15 10-33 10-14 0-26-12t-32-56-39-116-47-203-56-308q-59-335-123-633T938-437t-55-192q-77-233-190-233-40 0-73 31t-37 85q0 35 19 48t38 13q21 0 38-15t17-41q0-48-53-57z"/><path id="o" stroke-width="1" d="M308 24q59 0 108 52t50 121q0 63-52 87-106 27-136 37t-42 20q-60 42-60 121 0 61 32 111t65 75q29 25 70 40t64 16h18q96 0 139-64 1 0 13 13t26 29 20 22h4q3 0 5 1 13 0 13-7t-28-121-32-118-16-3q-20 0-20 9 0 6 1 10 0 3 1 19t2 26q0 34-9 59t-18 37-25 25q-36 21-82 21-57 0-106-46t-50-106q0-30 15-52t41-31q4-2 70-19t67-18q34-11 66-48t32-100q0-26-8-56-5-22-18-49t-36-59-66-60-94-38q-12-2-34-2-99 0-154 55l-10 11-28-31Q83-14 78-18t-13-4q-13 0-13 8 0 3 58 235 2 6 20 6h13q6-6 6-11 0-2-1-9t-4-21-2-33q2-39 18-66t43-40 52-18 53-5z"/><path id="p" stroke-width="1" d="M205 131q0-26-13-47t-27-30l-13-9q0-1 8-3t22-5 31-2h3q39 0 73 30 25 25 40 64 2 7 63 249t61 245q0 1-60 1h-61q-14 7-14 16 0 7 4 24t12 20q4 2 25 2 54-2 174-2 33 0 72 1t47 1q25 0 33-3t9-14q0-5-3-17-5-21-10-24t-34-4h-45l-60-244q-11-44-24-95t-18-73-13-51-12-39-12-25-15-23-19-19q-78-72-216-72-71 0-114 24T43 70q-1 5-1 23 0 50 31 75t66 26q29 0 47-17t19-46z"/><path id="q" stroke-width="1" d="M354 45q75 0 113 46t39 93q0 41-29 66-16 12-93 29t-90 21q-56 18-84 62t-28 90q0 41 20 88t55 83q81 79 192 79 42 0 52-1 70-11 109-47 4-5 7-4 1 0 33 25t33 27q2 1 9 1 22 0 22-13 0-4-27-112t-29-112q-5-8-29-8-23 0-27 5l-3 3v3q0 2-1 4 0 2 1 14t1 24q0 73-43 103t-103 31q-68 0-107-39t-39-86q0-14 3-24t12-19 15-13 22-10 24-8 29-7 28-6q82-17 108-32 32-17 53-49 29-43 29-98 0-40-16-84t-48-87-89-71-131-28q-25 0-47 2t-39 6-31 8-25 10-18 10-15 10l-10 7-32-26q-6-4-11-8t-9-7-6-5-4-4-4-2-3-1-2-1-3 0h-6q-6 0-9 1t-4 2-3 4-3 5l27 112q7 26 16 63 10 41 14 49t16 9h12q19 0 25-1t6-9q0-2-3-18t-3-32q0-66 54-94t127-29z"/><path id="b" stroke-width="1" d="M213 578l-13-5q-14-5-40-10t-58-7H83v46h19q47 2 87 15t56 24 28 22q2 3 12 3 9 0 17-6V361l1-300q7-7 12-9t24-4 62-2h26V0h-11q-21 3-159 3-136 0-157-3H88v46h64q16 0 25 1t16 3 8 2 6 5 6 4v517z"/><path id="s" stroke-width="1" d="M202 508q-23 0-33 12t-11 27q0 10 6 30t21 47 45 51 71 35l32 5h12q33 0 39-1 63-11 105-53t60-93 17-111q0-95-47-217T402 53q-81-75-179-75-100 0-150 78-31 46-31 92v11q0 117 87 211t193 95q61 0 92-31t41-67l3 11q20 83 20 137 0 88-41 124t-93 37q-78 0-121-64 41-6 41-40 0-25-18-44t-44-20zm228-202q0 66-29 94t-68 28q-63 0-111-46-25-28-39-59t-33-102q-18-72-18-105 0-95 100-95 12 0 18 1 77 13 124 90 15 25 35 84t21 110z"/><path id="t" stroke-width="1" d="M258 624h-23q-21 0-26 2t-10 13q4 39 17 45 4 2 221 2 222 0 231-1 59-5 104-23t70-41 41-53 22-51 8-42q1-9 1-41 0-61-22-127t-64-128T712 69 548 7q-31-5-54-5T279 0H58Q47 5 43 15q4 39 17 45 4 2 53 2h49l140 561q0 1-44 1zm510-149q0 40-15 69t-35 44-52 23-53 11-50 2H452l-70-280Q311 64 311 63t52-1h42q85 0 140 14t111 66q40 43 68 123t36 134 8 76z"/><path id="u" stroke-width="1" d="M26 385q-7 7-7 10 0 4 3 16t5 14q2 5 9 5t51 1h53l19 80q3 11 7 29t7 26 6 20 8 17 10 12 14 9 18 2q18-1 25-11t7-19q0-7-9-47t-20-79l-10-37q0-2 50-2h51q7-7 7-11 0-22-13-35H210l-36-145Q135 80 135 68q0-42 27-42 35 0 68 34t53 84q2 6 5 7t15 2h4q15 0 15-8 0-3-3-12-5-16-18-38t-34-47-51-42-61-17q-30 0-57 15T59 56q-2 8-2 27v18l35 140q35 141 36 142 0 2-51 2H26z"/><path id="d" stroke-width="1" d="M109 429q-27 0-43 18t-16 44q0 71 53 123t132 52q91 0 152-56t62-145q0-43-20-82t-48-68-80-74q-36-31-100-92l-59-56 76-1q157 0 167 5 7 2 24 89v3h40v-3q-1-3-13-91T421 3V0H50v31q0 7 6 15t30 35q29 32 50 56 9 10 34 37t34 37 29 33 28 34 23 30 21 32 15 29 13 32 7 30 3 33q0 63-34 109t-97 46q-33 0-58-17t-35-33-10-19q0-1 5-1 18 0 37-14t19-46q0-25-16-42t-45-18z"/><path id="v" stroke-width="1" d="M257 618h-26q-33 0-33 18 4 36 16 42l5 2h592q6-3 9-7t4-7l1-2q0-5-11-115t-15-116q-6-9-28-9-19 0-25 3t-6 14q0 4 2 25t2 39q0 56-22 80t-76 31q-7 1-101 2h-89q0-1-29-116t-29-117q0-1 37-1 26 1 36 1t28 6 27 14 19 28 17 45q4 16 9 19t24 4h9q18 0 22-15 0-4-33-137t-36-136q-5-8-27-8-31 0-31 14 0 3 4 23t5 39q0 27-17 33t-62 8h-47L317 64q0-2 73-2 70 0 103 2t76 16 71 44q25 25 46 63t33 66 14 30q6 6 27 6 31 0 31-15 0-7-28-73T706 71L678 8q-2-4-11-8H58Q47 5 43 15q4 39 17 45 4 2 53 2h49l1 4q0 1 68 275t70 275q0 2-44 2z"/><path id="w" stroke-width="1" d="M84 237v13l14 20h581q15-8 15-20t-15-20H98q-14 7-14 20z"/><path id="x" stroke-width="1" d="M258 624h-23q-21 0-26 2t-10 13q4 39 17 45 4 2 233 2h137q98 0 147-9t84-43q36-36 36-87 0-48-27-87t-65-59-66-30-41-11h-1l9-2q8-1 21-4t29-10 32-17 30-24 21-34 9-45q0-76-72-145T533 1q-9-1-245-1H58Q47 5 43 15q4 39 17 45 4 2 53 2h49l140 561q0 1-44 1zm445-74q0 21-8 36t-20 23-19 10-13 4l-98 1h-98l-30-120q-31-120-31-121t84-1q84 1 95 3 67 12 102 62t36 103zm-52-310q0 25-6 42t-19 27-18 13-16 7q-5 1-113 2H373l-33-133Q307 65 306 64q0-2 100-2l101 1 12 2q46 11 77 42t43 64 12 69z"/><path id="e" stroke-width="1" d="M127 463q-27 0-42 17t-16 44q0 55 48 98t116 43q35 0 44-1 74-12 113-53t40-89q0-52-34-101t-94-71l-3-2q0-1 9-3t29-9 38-21q82-53 82-140 0-79-62-138T238-22q-80 0-138 43T42 130q0 28 18 45t45 18q28 0 46-18t18-45q0-11-3-20t-7-16-11-12-12-8-10-4-8-3l-4-1q51-45 124-45 55 0 83 53 17 33 17 101v20q0 95-64 127-15 6-61 7l-42 1-3 2q-2 3-2 16 0 18 8 18 28 0 58 5 34 5 62 42t28 112v8q0 57-35 79-22 14-47 14-32 0-59-11t-38-23-11-12h3q3-1 8-2t10-5 12-7 10-11 8-15 3-20q0-22-14-39t-45-18z"/><path id="y" stroke-width="1" d="M96 585q56 81 153 81 48 0 96-26t78-92q37-83 37-228 0-155-43-237-20-42-55-67t-61-31-51-7q-26 0-52 6t-61 32-55 67q-43 82-43 237 0 174 57 265zm225 12q-30 32-71 32-42 0-72-32-25-26-33-72t-8-192q0-158 8-208t36-79q28-30 69-30 40 0 68 30 29 30 36 84t8 203q0 145-8 191t-33 73z"/><path id="f" stroke-width="1" d="M462 0q-18 3-129 3-116 0-134-3h-9v46h58q7 0 17 2t14 5 7 8q1 2 1 54v50H28v46l151 231q153 232 155 233 2 2 21 2h18l6-6V211h92v-46h-92v-51-48q0-7 6-12 8-7 57-8h29V0h-9zM293 211v334L74 212l109-1h110z"/><path id="z" stroke-width="1" d="M114-798q18-26 51-26h2q28 0 56 60t52 164 45 209 42 227q3 21 5 31 72 425 156 788t122 472l10 30q4 12 17 44t27 56 34 49 44 40 51 14q56 0 84-35t32-80q0-25-12-40t-23-19-22-3q-21 0-38 15t-17 41q0 48 53 57l-3 4q-3 3-8 7t-8 6q-15 10-33 10-14 0-26-12t-32-56-39-116-47-203-56-308Q574 293 510-5T410-437t-55-192q-77-233-190-233-40 0-73 31t-37 85q0 35 19 48t38 13q21 0 38-15t17-41q0-48-53-57zm528 0q18-26 51-26h2q28 0 56 60t52 164 45 209 42 227q3 21 5 31 72 425 156 788t122 472l10 30q4 12 17 44t27 56 34 49 44 40 51 14q56 0 84-35t32-80q0-25-12-40t-23-19-22-3q-21 0-38 15t-17 41q0 48 53 57l-3 4q-3 3-8 7t-8 6q-15 10-33 10-14 0-26-12t-32-56-39-116-47-203-56-308q-59-335-123-633T938-437t-55-192q-77-233-190-233-40 0-73 31t-37 85q0 35 19 48t38 13q21 0 38-15t17-41q0-48-53-57zm508 0q18-26 51-26h2q28 0 56 60t52 164 45 209 42 227q3 21 5 31 72 425 156 788t122 472l10 30q4 12 17 44t27 56 34 49 44 40 51 14q56 0 84-35t32-80q0-25-12-40t-23-19-22-3q-21 0-38 15t-17 41q0 48 53 57l-3 4q-3 3-8 7t-8 6q-15 10-33 10-14 0-26-12t-32-56-39-116-47-203-56-308q-59-335-123-633t-100-432-55-192q-77-233-190-233-40 0-73 31t-37 85q0 35 19 48t38 13q21 0 38-15t17-41q0-48-53-57z"/><path id="A" stroke-width="1" d="M52 648q0 22 13 35h11q42-3 105-3 118 0 139 3h10q6-6 6-9t-2-18q-5-15-9-19h-21q-22-2-30-2-29-5-32-15 0-2 29-251t30-251l73 117q73 117 146 236t75 123q4 7 4 15 0 24-44 28-18 0-18 11 0 1 2 13 3 14 6 18t13 4h12q10 0 34-1t64-1q69 0 87 2h7q7-7 7-11 0-17-9-32-3-3-17-3-13-1-24-2t-21-5-16-7-12-8-10-7-8-9-7-7L452 282Q272-9 266-16q-3-2-7-5l-18-1h-7q-18 0-18 7-3 6-39 320-38 318-39 321-5 11-62 11H59q-7 5-7 11z"/><path id="B" stroke-width="1" d="M58-216q-33 0-35 30 0 10 50 212t54 208q16 55 55 107 70 86 159 100h8q6 0 10 1 73 0 112-48t39-118q0-57-24-111t-61-91-80-61-79-23h-18q-51 0-83 45l-5 6-27-112q-25-97-29-110t-12-21q-16-14-34-14zm366 538q0 37-17 60t-50 23q-35 0-70-29t-56-76q-14-31-38-130l-17-68q17-76 84-76 38 0 74 36 33 30 55 96t29 108 6 56z"/></defs><g fill="currentColor" stroke="currentColor" stroke-width="0"><g transform="matrix(1 0 0 -1 41775 -3890)"><use xlink:href="#a"/><use x="389" xlink:href="#b"/><use x="890" xlink:href="#c"/></g><g transform="matrix(1 0 0 -1 41775 -1283)"><use xlink:href="#a"/><use x="389" xlink:href="#d"/><use x="890" xlink:href="#c"/></g><g transform="matrix(1 0 0 -1 41775 1293)"><use xlink:href="#a"/><use x="389" xlink:href="#e"/><use x="890" xlink:href="#c"/></g><g transform="matrix(1 0 0 -1 41775 3869)"><use xlink:href="#a"/><use x="389" xlink:href="#f"/><use x="890" xlink:href="#c"/></g><g><g transform="matrix(1 0 0 -1 13360 -3890)"><g transform="translate(166)"><use y="1" xlink:href="#g"/><use x="787" y="-1270" transform="scale(.707)" xlink:href="#h"/></g><use x="1277" xlink:href="#i"/><use x="2527" xlink:href="#j"/><use x="3028" xlink:href="#k"/><use x="3584" xlink:href="#l"/><use x="4211" xlink:href="#m"/><g transform="translate(5267)"><use xlink:href="#n"/><use x="1533" y="-1270" transform="scale(.707)" xlink:href="#o"/></g><use x="7074" xlink:href="#p"/><use x="7991" xlink:href="#j"/><use x="8492" xlink:href="#k"/><use x="9048" xlink:href="#q"/><use x="9985" xlink:href="#r"/><g transform="translate(10986)"><use xlink:href="#n"/><use x="1533" y="-1270" transform="scale(.707)" xlink:href="#o"/></g><path stroke="none" d="M12913 220h1626v60h-1626z"/><g transform="translate(12973 676)"><use xlink:href="#s"/><use x="567" xlink:href="#t"/></g><g transform="translate(13261 -691)"><use xlink:href="#s"/><use x="567" xlink:href="#u"/></g><use x="14882" xlink:href="#j"/><use x="15382" xlink:href="#k"/><use x="15939" xlink:href="#q"/></g><g transform="matrix(1 0 0 -1 13360 -1283)"><g transform="translate(166)"><use y="1" xlink:href="#g"/><use x="787" y="-1270" transform="scale(.707)" xlink:href="#h"/></g><use x="1277" xlink:href="#v"/><use x="2325" xlink:href="#j"/><use x="2826" xlink:href="#k"/><use x="3382" xlink:href="#l"/><use x="4009" xlink:href="#m"/><use x="5065" xlink:href="#w"/><g transform="translate(6010)"><use xlink:href="#n"/><use x="1533" y="-1270" transform="scale(.707)" xlink:href="#o"/></g><path stroke="none" d="M7937 220h1554v60H7937z"/><g transform="translate(7997 676)"><use xlink:href="#s"/><use x="567" xlink:href="#x"/></g><g transform="translate(8249 -691)"><use xlink:href="#s"/><use x="567" xlink:href="#u"/></g><use x="9834" xlink:href="#j"/><use x="10335" xlink:href="#k"/><use x="10891" xlink:href="#q"/></g><g transform="matrix(1 0 0 -1 13360 1293)"><g transform="translate(166)"><use y="1" xlink:href="#g"/><use x="787" y="-1270" transform="scale(.707)" xlink:href="#o"/></g><use x="1446" xlink:href="#x"/><use x="2534" xlink:href="#j"/><use x="3035" xlink:href="#k"/><use x="3592" xlink:href="#q"/><use x="4584" xlink:href="#m"/><use x="5640" xlink:href="#y"/></g><g transform="matrix(1 0 0 -1 13360 3869)"><g transform="translate(166)"><use y="1" xlink:href="#g"/><use x="787" y="-1270" transform="scale(.707)" xlink:href="#o"/></g><use x="1446" xlink:href="#t"/><use x="2606" xlink:href="#j"/><use x="3107" xlink:href="#k"/><use x="3664" xlink:href="#q"/><use x="4656" xlink:href="#m"/><g transform="translate(5712)"><use xlink:href="#z"/><use x="2252" y="-1270" transform="scale(.707)" xlink:href="#A"/></g><use x="8116" xlink:href="#B"/><use x="8633" xlink:href="#k"/><use x="9190" xlink:href="#A"/></g></g></g></svg>